<?xml version="1.0" encoding="utf-8"?>
<!-- Generator: Adobe Illustrator 25.2.3, SVG Export Plug-In . SVG Version: 6.00 Build 0)  -->
<svg version="1.1" xmlns="http://www.w3.org/2000/svg" xmlns:xlink="http://www.w3.org/1999/xlink" x="0px" y="0px"
	 viewBox="0 0 60 60" enable-background="new 0 0 60 60" xml:space="preserve">
<g id="Background">
</g>
<g id="Layer_1">
	<g>
		<path fill="#F4B24F" d="M47.71,20.34c0,1.37-0.58,2.48-1.54,3.44c-6.36,6.35-12.72,12.71-19.07,19.06
			c-1.13,1.13-2.26,2.27-3.4,3.39c-2.02,1.99-4.7,2.01-6.71,0c-3.5-3.48-7-6.98-10.48-10.48c-2-2.01-2.01-4.7-0.01-6.71
			C14.01,21.52,21.53,14,29.06,6.49c1.98-1.98,4.67-1.98,6.66-0.01c3.54,3.51,7.06,7.05,10.59,10.58
			C47.21,17.96,47.71,19.05,47.71,20.34z M20.36,26.39c0.01,3.33,2.7,6.02,6.01,6.01c3.35-0.01,6.04-2.73,6.02-6.08
			c-0.01-3.31-2.74-5.98-6.06-5.96C22.99,20.38,20.35,23.05,20.36,26.39z M14.47,32.4c-0.26-1.1-0.46-2.21-0.79-3.28
			c-0.27-0.89-1.1-1.26-1.89-0.99c-0.84,0.28-1.24,1.08-0.91,1.99c0.54,1.53,0.54,3.03,0,4.55c-0.32,0.91,0.08,1.7,0.93,1.98
			c0.8,0.27,1.62-0.11,1.89-1C14.01,34.61,14.2,33.53,14.47,32.4z M32.39,14.47c1.1-0.25,2.18-0.45,3.23-0.76
			c0.93-0.28,1.32-1.12,1.03-1.93c-0.29-0.83-1.09-1.21-2.01-0.89c-1.5,0.53-2.98,0.54-4.48,0.01c-0.92-0.33-1.72,0.04-2.02,0.86
			c-0.3,0.82,0.09,1.67,1.01,1.95C30.2,14.02,31.29,14.21,32.39,14.47z M38.28,20.36c0.26,1.1,0.45,2.19,0.77,3.23
			c0.28,0.91,1.13,1.3,1.95,1.01c0.78-0.27,1.17-1.1,0.87-1.96c-0.54-1.52-0.56-3.02-0.01-4.55c0.32-0.91-0.07-1.72-0.89-2.01
			c-0.81-0.28-1.65,0.12-1.93,1.05C38.73,18.18,38.54,19.26,38.28,20.36z M20.32,38.28c-1.12,0.26-2.22,0.47-3.29,0.8
			c-0.86,0.26-1.24,1.13-0.95,1.92c0.29,0.79,1.09,1.19,1.95,0.89c1.52-0.54,3.02-0.57,4.55-0.02c0.89,0.32,1.72-0.1,1.99-0.92
			c0.26-0.79-0.12-1.62-1.01-1.89C22.51,38.73,21.43,38.53,20.32,38.28z"/>
		<path fill="#00B692" d="M36.62,37.54c2.18-2.16,4.29-4.27,6.42-6.36c0.18-0.17,0.49-0.28,0.74-0.28c2.19-0.02,4.38-0.03,6.56-0.01
			c2.74,0.03,4.64,1.97,4.65,4.71c0.01,4.89,0.01,9.79,0,14.68c0,2.78-1.93,4.72-4.7,4.72C39.38,55,28.46,55,17.54,54.99
			c-2.78,0-4.71-1.91-4.74-4.69c-0.02-1.26,0-2.52,0-3.78c0.06-0.04,0.13-0.08,0.19-0.12c0.58,0.6,1.15,1.21,1.73,1.81
			c1.24,1.3,2.74,2.11,4.52,2.41c0.23,0.04,0.48,0.31,0.62,0.54c0.46,0.79,1.02,1.13,1.76,0.99c0.68-0.13,1.05-0.62,1.18-1.54
			c0.02-0.14,0.1-0.35,0.21-0.39c1.97-0.67,3.19-2.27,4.6-3.64c0.3-0.29,0.55-0.64,0.85-0.99c1.63,2.59,3.79,3.8,6.7,3.21
			c2.55-0.53,4.16-2.18,4.64-4.73C40.32,41.22,39.11,39.09,36.62,37.54z M52.15,46.55c-0.02-1.16-1.11-1.84-2.18-1.38
			c-2.24,0.96-3.85,2.57-4.81,4.81c-0.36,0.84-0.04,1.68,0.72,2.02c0.77,0.35,1.62,0.07,2-0.77c0.7-1.55,1.8-2.66,3.36-3.35
			C51.83,47.63,52.12,47.13,52.15,46.55z M52.33,39.25c-0.3-0.39-0.52-0.95-0.91-1.13c-1.6-0.75-2.77-1.87-3.56-3.45
			c-0.35-0.71-1.21-0.9-1.9-0.57c-0.72,0.34-1.07,1.15-0.74,1.9c1,2.28,2.66,3.9,4.98,4.8C51.19,41.18,52.2,40.41,52.33,39.25z"/>
		<path fill="#F4B24F" d="M36.91,42.99c-0.02,1.65-1.39,2.98-3.04,2.96c-1.64-0.02-3-1.39-2.99-3.03c0.01-1.66,1.44-3.05,3.09-3
			C35.63,39.98,36.94,41.34,36.91,42.99z"/>
		<path fill="#00B692" d="M23.36,26.36c0.01-1.65,1.35-3,3.01-3c1.65,0,3.01,1.34,3.02,2.99c0.02,1.65-1.4,3.06-3.05,3.04
			C24.69,29.37,23.35,28,23.36,26.36z"/>
	</g>
</g>
</svg>
