<?xml version="1.0" encoding="utf-8"?>
<!-- Generator: Adobe Illustrator 25.2.3, SVG Export Plug-In . SVG Version: 6.00 Build 0)  -->
<svg version="1.1" xmlns="http://www.w3.org/2000/svg" xmlns:xlink="http://www.w3.org/1999/xlink" x="0px" y="0px"
	 viewBox="0 0 60 60" enable-background="new 0 0 60 60" xml:space="preserve">
<g id="Background">
</g>
<g id="Layer_1">
	<g>
		<path fill="#F4B24F" d="M30,5c0,2.3-0.01,4.5,0,6.7c0.01,1.66-0.12,3.34,0.1,4.97c0.77,5.52,5,9.12,10.63,9.17
			c2.96,0.03,5.92,0,8.88,0c0.35,0,0.71,0,1.18,0c0.02,0.41,0.05,0.75,0.05,1.09c0,5.69,0.01,11.39,0,17.08
			C50.83,50.54,46.38,54.99,39.87,55c-6.6,0-13.21,0.01-19.81,0c-6.38-0.01-10.88-4.47-10.9-10.85c-0.02-9.43-0.02-18.87,0-28.3
			C9.18,9.46,13.69,5.01,20.08,5c2.96,0,5.92,0,8.88,0C29.28,5,29.59,5,30,5z M29.9,44.6c2.7,0,5.4,0.02,8.1-0.01
			c1.64-0.01,2.61-1.07,2.36-2.5c-0.19-1.07-1.07-1.68-2.5-1.69c-5.24-0.01-10.47,0-15.71,0c-0.19,0-0.39,0-0.58,0.02
			c-1.19,0.14-1.94,0.94-1.95,2.05c-0.01,1.11,0.73,1.94,1.9,2.09c0.29,0.04,0.58,0.03,0.88,0.03C24.89,44.6,27.4,44.6,29.9,44.6z
			 M30.1,32.11C30.1,32.11,30.1,32.1,30.1,32.11c-2.76-0.01-5.53-0.03-8.29,0c-1.44,0.01-2.3,0.94-2.18,2.27
			c0.1,1.14,0.98,1.86,2.32,1.86c5.36,0.01,10.73,0,16.09,0c0.13,0,0.26,0,0.39-0.01c1.18-0.11,1.98-0.99,1.95-2.14
			c-0.03-1.12-0.81-1.96-1.99-1.98C35.63,32.08,32.87,32.11,30.1,32.11z M23.7,27.88c0.75,0,1.5,0.03,2.24-0.01
			c1.12-0.06,1.89-0.85,1.94-1.92c0.05-1.12-0.68-2.1-1.79-2.16c-1.55-0.08-3.12-0.08-4.67,0c-1.11,0.06-1.85,1.05-1.8,2.16
			c0.05,1.07,0.82,1.86,1.94,1.93C22.27,27.92,22.99,27.88,23.7,27.88z"/>
		<path fill="#00B692" d="M34.2,6.47c5.06,5.06,10.06,10.07,15.07,15.08c0.02-0.03-0.01,0.06-0.05,0.06c-3.19,0-6.38,0.1-9.56-0.03
			c-2.84-0.12-5.24-2.56-5.42-5.6C34.06,12.83,34.2,9.68,34.2,6.47z"/>
	</g>
</g>
</svg>
