<?xml version="1.0" encoding="utf-8"?>
<!-- Generator: Adobe Illustrator 25.2.3, SVG Export Plug-In . SVG Version: 6.00 Build 0)  -->
<svg version="1.1" xmlns="http://www.w3.org/2000/svg" xmlns:xlink="http://www.w3.org/1999/xlink" x="0px" y="0px"
	 viewBox="0 0 60 60" enable-background="new 0 0 60 60" xml:space="preserve">
<g id="Background">
</g>
<g id="Layer_1">
	<g>
		<path fill="#F4B24F" d="M33.48,48.92c-2.34,0-4.61,0-6.96,0c0,0.2,0,0.39,0,0.58c0,1.21,0.01,2.43,0,3.64
			C26.51,54.3,25.81,55,24.64,55c-4.55,0-9.1,0-13.65,0c-1.12,0-1.87-0.71-1.87-1.82C9.11,43.5,9.12,33.82,9.12,24.14
			c0-0.05,0.01-0.11,0.03-0.2c13.89,0,27.78,0,41.74,0c0,0.19,0,0.38,0,0.57c0,9.46,0,18.92,0,28.39c0,1.49-0.62,2.1-2.12,2.1
			c-4.4,0-8.81,0-13.21,0c-1.4,0-2.06-0.66-2.07-2.06C33.48,51.62,33.48,50.3,33.48,48.92z M41.27,34.34c0.74,0,1.48,0.01,2.23,0
			c0.76-0.01,1.16-0.39,1.16-1.12c0.01-1.36,0.01-2.72,0-4.07c-0.01-0.68-0.41-1.09-1.08-1.1c-1.54-0.02-3.08-0.01-4.62,0
			c-0.69,0.01-1.1,0.39-1.11,1.08c-0.02,1.38-0.02,2.75,0,4.13c0.01,0.71,0.42,1.09,1.14,1.1C39.75,34.35,40.51,34.34,41.27,34.34z
			 M18.73,44.02c0.76,0,1.52,0.01,2.28,0c0.76-0.01,1.14-0.39,1.15-1.14c0.01-1.34,0.01-2.68,0-4.02c0-0.75-0.39-1.14-1.14-1.15
			c-1.5-0.01-3-0.01-4.51,0c-0.73,0-1.14,0.37-1.15,1.09c-0.02,1.38-0.02,2.75,0,4.13c0.01,0.72,0.41,1.08,1.14,1.09
			C17.24,44.03,17.98,44.02,18.73,44.02z M41.28,44.02c0.74,0,1.48,0.01,2.23,0c0.75-0.01,1.15-0.39,1.16-1.13
			c0.01-1.34,0.01-2.68,0-4.02c-0.01-0.75-0.4-1.14-1.14-1.15c-1.5-0.01-3.01-0.01-4.51,0c-0.74,0-1.15,0.39-1.16,1.14
			c-0.02,1.34-0.02,2.68,0,4.02c0.01,0.77,0.41,1.14,1.2,1.15C39.79,44.02,40.53,44.02,41.28,44.02z M18.75,34.34
			c0.76,0,1.52,0.01,2.28,0c0.72-0.01,1.11-0.39,1.12-1.11c0.01-1.36,0.01-2.71,0-4.07c-0.01-0.71-0.4-1.11-1.11-1.12
			c-1.52-0.01-3.04-0.01-4.56,0c-0.7,0.01-1.1,0.38-1.12,1.06c-0.02,1.39-0.02,2.79,0,4.18c0.01,0.69,0.41,1.05,1.11,1.06
			C17.23,34.35,17.99,34.34,18.75,34.34z M30.03,34.34c0.74,0,1.48,0.01,2.23,0c0.74-0.01,1.14-0.36,1.15-1.08
			c0.02-1.38,0.02-2.75,0-4.13c-0.01-0.72-0.41-1.09-1.14-1.1c-1.5-0.01-3-0.01-4.51,0c-0.75,0.01-1.14,0.4-1.15,1.14
			c-0.01,1.34-0.01,2.68,0,4.02c0,0.76,0.38,1.13,1.14,1.14C28.51,34.35,29.27,34.34,30.03,34.34z M29.98,44.02
			c0.74,0,1.48,0.01,2.23,0c0.8-0.01,1.18-0.36,1.19-1.15c0.02-1.34,0.02-2.68,0-4.02c-0.01-0.76-0.4-1.13-1.15-1.14
			c-1.5-0.01-3-0.01-4.51,0c-0.75,0.01-1.13,0.4-1.14,1.15c-0.01,1.34-0.01,2.68,0,4.02c0.01,0.75,0.39,1.12,1.15,1.13
			C28.5,44.02,29.24,44.02,29.98,44.02z"/>
		<path fill="#00B692" d="M29.99,20.41c-7.41,0-14.82,0-22.23,0c-1.48,0-2.12-0.64-2.12-2.11c0-1.52,0-3.04,0.01-4.57
			c0-1.32,0.72-2.04,2.06-2.05c3.37-0.01,6.74-0.01,10.11,0c0.31,0,0.53-0.06,0.71-0.35c2.34-3.73,5.72-5.86,10.09-6.26
			c5.19-0.48,9.42,1.37,12.46,5.65c0.54,0.75,1.03,1,1.91,0.98c3.08-0.05,6.16-0.02,9.24-0.02c1.54,0,2.15,0.6,2.15,2.13
			c0,1.52,0,3.04-0.01,4.57c0,1.38-0.65,2.03-2.03,2.03C44.89,20.41,37.44,20.41,29.99,20.41z"/>
	</g>
</g>
</svg>
