<?xml version="1.0" encoding="utf-8"?>
<!-- Generator: Adobe Illustrator 25.2.3, SVG Export Plug-In . SVG Version: 6.00 Build 0)  -->
<svg version="1.1" xmlns="http://www.w3.org/2000/svg" xmlns:xlink="http://www.w3.org/1999/xlink" x="0px" y="0px"
	 viewBox="0 0 60 60" enable-background="new 0 0 60 60" xml:space="preserve">
<g id="Background">
</g>
<g id="Layer_1">
	<g>
		<path fill="#FFFFFF" d="M17.89,55c-0.85-0.39-1.09-1.06-1.09-1.97c0.02-9.52,0.01-19.04,0.01-28.56c0-1.27,0.53-1.8,1.81-1.8
			c7.58,0,15.17,0,22.75,0c1.28,0,1.81,0.53,1.81,1.8c0,9.52-0.01,19.04,0.01,28.56c0,0.91-0.24,1.58-1.09,1.97
			c-2.57,0-5.14,0-7.72,0c0-2.42,0-4.84,0-7.26c0-1.04-0.6-1.62-1.64-1.62c-1.82,0-3.64,0-5.46,0c-1.11,0-1.69,0.57-1.69,1.67
			c0,2.4,0,4.81,0,7.21C23.03,55,20.46,55,17.89,55z M25.6,30c0-0.79-0.65-1.46-1.44-1.47c-0.79-0.01-1.47,0.64-1.48,1.43
			c-0.02,0.81,0.66,1.5,1.47,1.49C24.94,31.46,25.6,30.79,25.6,30z M31.46,30c0-0.79-0.65-1.46-1.44-1.47
			c-0.79-0.01-1.47,0.64-1.48,1.43c-0.02,0.81,0.66,1.5,1.47,1.5C30.8,31.46,31.46,30.8,31.46,30z M37.33,29.97
			c-0.01-0.79-0.68-1.45-1.47-1.44c-0.79,0.01-1.45,0.67-1.45,1.46c0,0.81,0.69,1.49,1.5,1.47C36.69,31.44,37.34,30.76,37.33,29.97z
			 M25.6,35.88c0.01-0.79-0.64-1.47-1.43-1.48c-0.79-0.02-1.47,0.63-1.49,1.42c-0.02,0.81,0.65,1.5,1.46,1.51
			C24.92,37.32,25.59,36.67,25.6,35.88z M31.46,35.85c0-0.79-0.67-1.45-1.46-1.45c-0.79,0-1.46,0.66-1.47,1.45
			c-0.01,0.81,0.68,1.49,1.48,1.48C30.81,37.31,31.47,36.64,31.46,35.85z M35.93,34.39c-0.79-0.04-1.49,0.59-1.53,1.38
			c-0.05,0.81,0.61,1.52,1.41,1.55c0.79,0.03,1.48-0.61,1.51-1.4C37.36,35.13,36.73,34.43,35.93,34.39z M25.6,41.74
			c0.01-0.79-0.64-1.47-1.43-1.48c-0.79-0.02-1.47,0.63-1.49,1.42c-0.02,0.81,0.65,1.5,1.46,1.51
			C24.92,43.18,25.59,42.53,25.6,41.74z M30.01,43.18c0.79,0,1.45-0.67,1.46-1.46c0-0.79-0.65-1.46-1.45-1.47
			c-0.81-0.01-1.49,0.67-1.48,1.48C28.55,42.53,29.22,43.18,30.01,43.18z M37.33,41.71c0-0.79-0.66-1.45-1.46-1.46
			c-0.79,0-1.46,0.65-1.47,1.44c-0.01,0.81,0.67,1.49,1.48,1.48C36.67,43.17,37.33,42.5,37.33,41.71z"/>
		<path fill="#FFFFFF" d="M28.54,55c0-1.96,0-3.93,0-5.92c0.97,0,1.92,0,2.93,0c0,1.97,0,3.95,0,5.92C30.49,55,29.51,55,28.54,55z"
			/>
		<path fill="#00B692" d="M7.52,16.93c0.14-0.79,0.28-1.72,0.46-2.64c0.06-0.32,0-0.54-0.25-0.77c-0.62-0.57-1.21-1.18-1.82-1.77
			c-0.45-0.43-0.66-0.93-0.48-1.54c0.18-0.63,0.63-0.97,1.27-1.06C7.55,9.02,8.38,8.9,9.22,8.79c0.35-0.04,0.57-0.18,0.72-0.53
			c0.34-0.81,0.74-1.59,1.1-2.39c0.28-0.6,0.75-0.88,1.4-0.88c0.62,0.01,1.08,0.29,1.35,0.87c0.36,0.78,0.75,1.55,1.08,2.35
			c0.16,0.38,0.4,0.53,0.79,0.58c0.89,0.11,1.78,0.22,2.65,0.4c1.1,0.23,1.5,1.52,0.77,2.37c-0.08,0.1-0.18,0.19-0.27,0.28
			c-0.59,0.58-1.2,1.15-1.77,1.75c-0.13,0.14-0.22,0.4-0.19,0.59c0.11,0.82,0.27,1.64,0.42,2.45c0.13,0.67,0.04,1.28-0.55,1.7
			c-0.57,0.41-1.16,0.33-1.74,0.01c-0.74-0.4-1.49-0.8-2.25-1.17c-0.17-0.08-0.44-0.08-0.61,0c-0.83,0.4-1.64,0.87-2.47,1.27
			C8.59,18.96,7.48,18.23,7.52,16.93z"/>
		<path fill="#FFFFFF" d="M25.11,16.93c0.14-0.79,0.28-1.72,0.46-2.64c0.06-0.32,0-0.54-0.25-0.77c-0.62-0.57-1.21-1.18-1.82-1.77
			c-0.45-0.43-0.66-0.93-0.48-1.54c0.18-0.63,0.63-0.97,1.27-1.06c0.84-0.12,1.67-0.25,2.51-0.35c0.35-0.04,0.57-0.18,0.72-0.53
			c0.34-0.81,0.74-1.59,1.1-2.39c0.28-0.6,0.75-0.88,1.4-0.88c0.62,0.01,1.08,0.29,1.35,0.87c0.36,0.78,0.75,1.55,1.08,2.35
			c0.16,0.38,0.4,0.53,0.79,0.58c0.89,0.11,1.78,0.22,2.65,0.4c1.1,0.23,1.5,1.52,0.77,2.37c-0.08,0.1-0.18,0.19-0.27,0.28
			c-0.59,0.58-1.2,1.15-1.77,1.75c-0.13,0.14-0.22,0.4-0.19,0.59c0.11,0.82,0.27,1.64,0.42,2.45c0.13,0.67,0.04,1.28-0.55,1.7
			c-0.57,0.41-1.16,0.33-1.74,0.01c-0.74-0.4-1.49-0.8-2.25-1.17c-0.17-0.08-0.44-0.08-0.61,0c-0.83,0.4-1.64,0.87-2.47,1.27
			C26.17,18.96,25.07,18.23,25.11,16.93z"/>
		<path fill="#00B692" d="M42.69,16.97c0.13-0.78,0.27-1.72,0.46-2.64c0.07-0.37-0.01-0.6-0.28-0.85c-0.61-0.56-1.19-1.16-1.79-1.73
			c-0.45-0.43-0.65-0.93-0.47-1.54c0.19-0.63,0.64-0.96,1.27-1.06c0.8-0.12,1.61-0.24,2.42-0.34c0.4-0.05,0.67-0.17,0.84-0.59
			c0.31-0.78,0.71-1.53,1.06-2.3c0.27-0.6,0.73-0.91,1.37-0.91c0.67-0.01,1.14,0.3,1.42,0.92c0.37,0.82,0.74,1.63,1.15,2.42
			c0.09,0.18,0.32,0.36,0.52,0.4c0.94,0.18,1.9,0.26,2.84,0.46c1.1,0.23,1.5,1.52,0.76,2.38c-0.08,0.1-0.18,0.19-0.27,0.28
			c-0.59,0.58-1.2,1.15-1.77,1.75c-0.13,0.14-0.21,0.4-0.19,0.59c0.11,0.82,0.27,1.64,0.42,2.45c0.12,0.67,0.04,1.28-0.56,1.7
			c-0.57,0.4-1.16,0.32-1.75,0c-0.73-0.4-1.47-0.76-2.2-1.17c-0.26-0.15-0.46-0.13-0.71,0.01c-0.8,0.44-1.6,0.87-2.42,1.27
			C43.77,18.95,42.67,18.24,42.69,16.97z"/>
	</g>
</g>
</svg>
