<?xml version="1.0" encoding="utf-8"?>
<!-- Generator: Adobe Illustrator 25.2.3, SVG Export Plug-In . SVG Version: 6.00 Build 0)  -->
<svg version="1.1" xmlns="http://www.w3.org/2000/svg" xmlns:xlink="http://www.w3.org/1999/xlink" x="0px" y="0px"
	 viewBox="0 0 60 60" enable-background="new 0 0 60 60" xml:space="preserve">
<g id="Background">
</g>
<g id="Layer_1">
	<g>
		<g>
			<path fill="#FFFFFF" d="M55,43.77c-0.13,0.41-0.26,0.82-0.44,1.36C49.54,40,44.58,34.94,39.73,30c4.82-4.92,9.8-9.98,14.83-15.12
				c0.17,0.53,0.3,0.94,0.43,1.35C55,25.41,55,34.59,55,43.77z"/>
			<path fill="#F4B24F" d="M52.46,12.86c-0.13,0.14-0.24,0.26-0.35,0.38c-6.26,6.23-12.53,12.47-18.79,18.7
				c-1.35,1.34-2.94,1.87-4.76,1.2c-0.65-0.24-1.29-0.66-1.78-1.15c-6.34-6.27-12.66-12.57-18.98-18.86
				c-0.08-0.08-0.15-0.17-0.31-0.35c0.61-0.13,1.14-0.26,1.67-0.36c0.17-0.03,0.36-0.01,0.54-0.01c13.54,0,27.08,0,40.62,0
				C51.05,12.42,51.75,12.52,52.46,12.86z"/>
			<path fill="#F4B24F" d="M22.61,32c0.77,0.78,1.43,1.45,2.1,2.11c2.77,2.72,6.76,3.02,9.76,0.71c0.55-0.42,1.03-0.94,1.53-1.43
				c0.43-0.42,0.84-0.86,1.32-1.35c5,5.1,9.96,10.16,14.92,15.22c-0.33,0.07-0.85,0.2-1.38,0.3c-0.19,0.04-0.39,0.01-0.58,0.01
				c-13.52,0-27.04,0-40.56-0.01c-0.72,0-1.43-0.18-2.12-0.27C12.63,42.17,17.59,37.11,22.61,32z"/>
			<path fill="#FFFFFF" d="M5.32,45c-0.1-0.62-0.3-1.24-0.3-1.85c-0.02-8.77-0.02-17.54,0-26.32c0-0.62,0.2-1.23,0.31-1.84
				c0.06-0.02,0.12-0.03,0.18-0.05c4.96,5.06,9.92,10.13,14.78,15.09C15.47,34.94,10.5,40,5.54,45.06C5.47,45.04,5.39,45.02,5.32,45
				z"/>
		</g>
	</g>
</g>
</svg>
