<?xml version="1.0" encoding="utf-8"?>
<!-- Generator: Adobe Illustrator 25.2.3, SVG Export Plug-In . SVG Version: 6.00 Build 0)  -->
<svg version="1.1" xmlns="http://www.w3.org/2000/svg" xmlns:xlink="http://www.w3.org/1999/xlink" x="0px" y="0px"
	 viewBox="0 0 60 60" enable-background="new 0 0 60 60" xml:space="preserve">
<g id="Background">
</g>
<g id="Layer_1">
	<g>
		<path fill="#F4B24F" d="M16.84,55c-0.57-0.12-1.15-0.2-1.7-0.36c-3.57-1-5.83-3.75-5.98-7.49c-0.16-3.86,0.26-7.67,1.73-11.29
			c0.95-2.34,2.33-4.36,4.64-5.59c1.43-0.76,2.96-1.12,4.56-1.09c0.5,0.01,1.04,0.26,1.5,0.51c0.74,0.4,1.43,0.9,2.15,1.35
			c4.19,2.58,8.38,2.58,12.57-0.01c0.58-0.36,1.17-0.71,1.72-1.11c1-0.75,2.1-0.84,3.29-0.67c3.25,0.48,5.54,2.25,7.09,5.09
			c1.38,2.53,2,5.28,2.28,8.11c0.14,1.45,0.21,2.92,0.19,4.38c-0.05,4.36-3.05,7.61-7.4,8.08c-0.11,0.01-0.21,0.06-0.32,0.09
			C34.39,55,25.62,55,16.84,55z"/>
		<path fill="#00B692" d="M29.67,29.09c-6.72-0.04-12.1-5.44-12.04-12.1C17.68,10.31,23.08,5,29.74,5c6.55,0,12.05,5.42,12.03,12.08
			C41.75,23.76,36.22,29.15,29.67,29.09z"/>
	</g>
</g>
</svg>
