<?xml version="1.0" encoding="utf-8"?>
<!-- Generator: Adobe Illustrator 25.2.3, SVG Export Plug-In . SVG Version: 6.00 Build 0)  -->
<svg version="1.1" xmlns="http://www.w3.org/2000/svg" xmlns:xlink="http://www.w3.org/1999/xlink" x="0px" y="0px"
	 viewBox="0 0 60 60" enable-background="new 0 0 60 60" xml:space="preserve">
<g id="Background">
</g>
<g id="Layer_1">
	<g>
		<path fill="#F4B24F" d="M8.91,5c7.49,0,14.97,0,22.46,0c0,3.3,0,6.61,0,9.91c0,1.31,0.5,1.81,1.79,1.81c3.12,0,6.25,0,9.37,0
			c0.17,0,0.35,0,0.55,0c0,0.24,0,0.41,0,0.59c0,1.74-0.01,3.48,0.01,5.22c0,0.37-0.1,0.63-0.37,0.89
			c-3.12,3.09-6.24,6.18-9.33,9.31c-0.57,0.58-1.12,1.27-1.42,2.01c-0.66,1.62-1.2,3.3-1.68,4.98c-0.38,1.34,0.01,2.56,1.04,3.51
			c1.03,0.95,2.26,1.26,3.62,0.82c1.25-0.4,2.49-0.86,3.75-1.24c1.21-0.37,2.25-0.99,3.12-1.91c0.37-0.39,0.78-0.76,1.21-1.18
			c0.03,0.12,0.06,0.16,0.06,0.2c0,3.56,0.05,7.13-0.02,10.69c-0.04,2.37-1.66,4.04-4.01,4.34C38.81,54.99,38.56,55,38.32,55
			c-9.53,0-19.07,0-28.6,0c-1.58,0-2.94-0.5-3.83-1.83C5.47,52.56,5.29,51.79,5,51.09C5,37.03,5,22.97,5,8.91
			c0.03-0.08,0.06-0.15,0.08-0.23C5.26,7.59,5.79,6.71,6.62,6C7.29,5.44,8.08,5.19,8.91,5z M22.58,22.58c2.42,0,4.85,0,7.27,0
			c0.98,0,1.95,0.02,2.93-0.01c0.98-0.02,1.62-0.86,1.42-1.8c-0.15-0.7-0.75-1.12-1.62-1.12c-6.69,0-13.38,0-20.06,0
			c-0.11,0-0.23,0-0.34,0.01c-0.6,0.09-1.02,0.4-1.23,0.98c-0.36,1,0.37,1.94,1.52,1.94C15.84,22.58,19.21,22.58,22.58,22.58z
			 M19.65,25.51c-2.39,0-4.78,0-7.18,0c-0.75,0-1.28,0.34-1.51,0.94c-0.39,1.01,0.34,1.98,1.51,1.99c3.68,0.01,7.36,0,11.03,0
			c1.12,0,2.25,0.01,3.37,0c0.86-0.01,1.48-0.61,1.5-1.41c0.03-0.87-0.62-1.51-1.55-1.51C24.43,25.5,22.04,25.51,19.65,25.51z
			 M19.65,31.37c-2.39,0-4.78,0-7.18,0c-0.75,0-1.28,0.34-1.51,0.94c-0.39,1.01,0.34,1.99,1.51,1.99c3.68,0.01,7.36,0,11.03,0
			c1.12,0,2.25,0.01,3.37,0c0.86-0.01,1.48-0.61,1.5-1.41c0.03-0.87-0.62-1.51-1.55-1.51C24.43,31.36,22.04,31.37,19.65,31.37z
			 M19.62,40.15c2.38,0,4.75,0,7.13,0c0.56,0,1.03-0.15,1.36-0.62c0.33-0.46,0.37-0.97,0.13-1.48c-0.27-0.57-0.75-0.83-1.38-0.84
			c-2.18,0-4.36,0-6.54,0c-2.6,0-5.21,0-7.81,0c-0.7,0-1.24,0.26-1.53,0.91c-0.43,0.99,0.31,2.01,1.46,2.01
			C14.83,40.16,17.22,40.15,19.62,40.15z M28.43,48.94c1.38,0,2.77,0,4.15,0c1,0,1.65-0.58,1.66-1.46c0-0.88-0.65-1.47-1.64-1.47
			c-2.8,0-5.6,0-8.39,0c-1,0-1.65,0.58-1.66,1.46c0,0.88,0.65,1.47,1.64,1.47C25.6,48.95,27.02,48.94,28.43,48.94z"/>
		<path fill="#00B692" d="M34.98,5c1.43,0.22,2.46,1.07,3.42,2.07c1.04,1.1,2.13,2.14,3.2,3.21c0.95,0.95,1.46,2.08,1.41,3.47
			c-2.93,0-5.83,0-8.82,0c0-2.92,0-5.84,0-8.76C34.46,5,34.72,5,34.98,5z"/>
		<path fill="#00B692" d="M45.77,24.59c1.32,1.33,2.69,2.7,4.01,4.02c-3.13,3.13-6.33,6.33-9.47,9.47c-1.3-1.31-2.67-2.68-4.01-4.02
			C39.41,30.95,42.61,27.75,45.77,24.59z"/>
		<path fill="#00B692" d="M52.05,26.48c-1.38-1.38-2.74-2.75-4.16-4.17c0.8-0.76,1.59-1.64,2.5-2.35c1.09-0.86,2.87-0.63,3.8,0.36
			c1.02,1.09,1.1,2.73,0.12,3.87c-0.64,0.74-1.35,1.4-2.04,2.1C52.2,26.37,52.11,26.43,52.05,26.48z"/>
		<path fill="#00B692" d="M37.77,40.03c-1.21,0.4-2.43,0.82-3.65,1.21c-0.65,0.21-1.17-0.24-0.98-0.87
			c0.38-1.27,0.83-2.53,1.23-3.74C35.5,37.76,36.63,38.89,37.77,40.03z"/>
	</g>
</g>
</svg>
