<?xml version="1.0" encoding="utf-8"?>
<!-- Generator: Adobe Illustrator 25.2.3, SVG Export Plug-In . SVG Version: 6.00 Build 0)  -->
<svg version="1.1" xmlns="http://www.w3.org/2000/svg" xmlns:xlink="http://www.w3.org/1999/xlink" x="0px" y="0px"
	 viewBox="0 0 60 60" enable-background="new 0 0 60 60" xml:space="preserve">
<g id="Background">
</g>
<g id="Layer_1">
	<g>
		<path fill="#FFFFFF" d="M28.09,53.06c0-0.29,0-0.51,0-0.73c0-4.76,0-9.53,0-14.29c0-1.55-0.73-2.28-2.27-2.28
			c-2.32,0-4.64,0-6.97,0c-1.59,0-2.29,0.71-2.29,2.32c0,4.74,0,9.49,0,14.23c0,0.22,0,0.44,0,0.74c-0.3,0-0.57,0-0.84,0
			c-1.62,0-3.24,0.01-4.86,0c-1.16-0.01-1.98-0.81-1.98-1.96c-0.01-6.93,0-13.85,0-20.78c0-0.08,0.01-0.16,0.03-0.31
			c3.05,0.15,5.64-0.85,7.65-3.27c1.77,2.09,3.98,3.24,6.7,3.25c2.73,0.01,4.95-1.12,6.75-3.24c1.77,2.08,3.99,3.24,6.73,3.24
			c2.72,0,4.94-1.13,6.72-3.24c2.01,2.37,4.5,3.55,7.7,3.29c0,0.2,0,0.41,0,0.62c0,6.71,0,13.41,0,20.12c0,1.56-0.72,2.28-2.27,2.28
			c-6.71,0-13.41,0-20.12,0C28.57,53.06,28.37,53.06,28.09,53.06z M38.65,35.77c-0.92,0-1.84,0-2.76,0c-0.02,0-0.04,0-0.06,0
			c-1.16,0.03-1.96,0.82-1.96,1.98c-0.01,1.88-0.01,3.76,0,5.64c0.01,1.16,0.81,1.97,1.96,1.98c1.88,0.01,3.76,0.01,5.64,0
			c1.19-0.01,1.99-0.81,2-2.01c0.01-1.86,0.01-3.72,0-5.58c-0.01-1.22-0.82-2-2.05-2.01C40.49,35.76,39.57,35.77,38.65,35.77z"/>
		<path fill="#FFFFFF" d="M28.07,6.94c0.01,0.16,0.02,0.26,0.02,0.35c0,4.7,0.02,9.41-0.01,14.11c-0.02,2.73-2.26,4.84-4.98,4.75
			c-2.46-0.08-4.54-2.11-4.6-4.58c-0.04-1.58-0.02-3.16-0.01-4.74c0-0.23,0.08-0.47,0.16-0.69c1.15-2.9,2.32-5.79,3.46-8.69
			c0.16-0.41,0.37-0.52,0.79-0.52C24.6,6.96,26.3,6.94,28.07,6.94z"/>
		<path fill="#00B692" d="M31.97,6.94c1.83,0,3.61-0.01,5.39,0.01c0.16,0,0.4,0.18,0.46,0.33c1.23,3.02,2.43,6.04,3.63,9.07
			c0.06,0.16,0.08,0.35,0.08,0.52c0,1.54,0.03,3.08-0.01,4.62c-0.06,2.61-2.23,4.68-4.84,4.66c-2.57-0.02-4.73-2.1-4.75-4.68
			c-0.03-4.74-0.01-9.49-0.01-14.23C31.94,7.17,31.96,7.09,31.97,6.94z"/>
		<path fill="#FFFFFF" d="M41.58,6.96c1.43,0,2.81-0.05,4.18,0.02c1.02,0.05,1.89,0.52,2.54,1.32c1.97,2.41,3.94,4.84,5.89,7.27
			c0.54,0.68,0.81,1.47,0.8,2.34c-0.02,1.42,0.08,2.85-0.13,4.25c-0.37,2.53-2.73,4.25-5.22,4.01c-2.4-0.23-4.23-2.32-4.26-4.85
			c0-0.06-0.01-0.12,0-0.18c0.34-3.14-0.34-6.08-1.71-8.91c-0.72-1.49-1.25-3.07-1.87-4.6C41.73,7.41,41.67,7.2,41.58,6.96z"/>
		<path fill="#00B692" d="M18.47,6.98c-0.67,1.67-1.32,3.29-1.96,4.92c-0.38,0.96-0.72,1.95-1.17,2.89
			c-0.57,1.19-0.76,2.4-0.71,3.71c0.05,1.22,0.09,2.45-0.08,3.65c-0.38,2.55-2.59,4.21-5.13,4.01c-2.27-0.18-4.29-2.31-4.36-4.68
			c-0.04-1.26-0.09-2.53,0.03-3.78c0.06-0.7,0.3-1.49,0.73-2.04c1.94-2.52,3.97-4.97,5.98-7.42c0.59-0.72,1.4-1.19,2.32-1.24
			C15.54,6.92,16.97,6.98,18.47,6.98z"/>
	</g>
</g>
</svg>
