<?xml version="1.0" encoding="utf-8"?>
<!-- Generator: Adobe Illustrator 25.2.3, SVG Export Plug-In . SVG Version: 6.00 Build 0)  -->
<svg version="1.1" xmlns="http://www.w3.org/2000/svg" xmlns:xlink="http://www.w3.org/1999/xlink" x="0px" y="0px"
	 viewBox="0 0 60 60" enable-background="new 0 0 60 60" xml:space="preserve">
<g id="Background">
</g>
<g id="Layer_1">
	<g>
		<path fill="#F4B24F" d="M8.9,28.8c2.73-0.35,3.41-0.67,4.87-2.28c0.08,0.07,0.17,0.14,0.24,0.22c1.15,1.33,2.59,2.01,4.35,2
			c0.83-0.01,1.68,0.03,2.5-0.09c1.49-0.22,2.66-1.02,3.59-2.25c1.46,1.72,3.31,2.37,5.52,2.37c2.21,0,4.09-0.61,5.55-2.36
			c0.13,0.14,0.24,0.27,0.35,0.39c1.08,1.2,2.4,1.89,4.03,1.93c0.91,0.02,1.84,0.05,2.73-0.07c1.46-0.2,2.63-0.98,3.57-2.18
			c1.27,1.57,2.88,2.33,4.9,2.27c0.01,0.25,0.03,0.45,0.03,0.66c0,7.52,0,15.04,0,22.56c0,1.28-0.39,1.67-1.67,1.67
			c-7.09,0-14.18,0-21.28,0c-0.19,0-0.38,0-0.63,0c-0.01-0.27-0.03-0.5-0.03-0.72c0-5.81,0-11.62,0-17.43
			c0-1.38-0.38-1.76-1.76-1.76c-3.03,0-6.06,0-9.09,0c-1.16,0-1.59,0.42-1.59,1.57c0,5.85,0,11.7,0,17.54c0,0.23,0,0.46,0,0.74
			c-0.17,0.02-0.32,0.05-0.47,0.05c-1.42,0-2.84,0.01-4.26,0c-1.02-0.01-1.48-0.45-1.48-1.45c0-7.65,0-15.31,0-22.96
			C8.87,29.1,8.89,28.96,8.9,28.8z M44.93,39.99c0-1.59,0-3.18,0-4.78c0-1-0.46-1.47-1.45-1.47c-2.76,0-5.52,0-8.27,0
			c-1,0-1.46,0.46-1.46,1.46c0,3.17,0,6.33,0,9.5c0,0.99,0.47,1.48,1.45,1.48c2.76,0.01,5.52,0.01,8.27,0
			c0.99,0,1.46-0.49,1.46-1.47C44.94,43.13,44.93,41.56,44.93,39.99z"/>
		<path fill="#00B692" d="M29.83,26.27c-1.03,0.08-2.1-0.15-2.99-0.98c-0.89-0.83-1.34-1.87-1.21-3.08
			c0.55-5.13,1.13-10.26,1.69-15.39c0.04-0.34,0.15-0.47,0.5-0.46c1.46,0.02,2.91,0.01,4.37,0c0.31,0,0.45,0.09,0.49,0.42
			c0.38,3.55,0.78,7.1,1.17,10.65c0.16,1.49,0.33,2.97,0.49,4.46c0.27,2.61-1.34,4.39-3.96,4.4C30.24,26.27,30.11,26.27,29.83,26.27
			z"/>
		<path fill="#00B692" d="M35.14,6.37c1.66,0,3.27-0.01,4.88,0.02c0.13,0,0.31,0.29,0.36,0.48c0.83,2.93,1.64,5.86,2.45,8.79
			c0.6,2.15,1.19,4.29,1.78,6.44c0.64,2.33-0.77,4.17-3.19,4.17c-0.41,0-0.82,0-1.22,0c-1.7-0.02-2.98-1.12-3.18-2.8
			c-0.49-4.3-0.96-8.6-1.43-12.9c-0.13-1.2-0.27-2.39-0.4-3.59C35.17,6.8,35.16,6.61,35.14,6.37z"/>
		<path fill="#00B692" d="M19.77,6.39c1.69,0,3.36,0,5.1,0c-0.08,0.79-0.16,1.55-0.24,2.31c-0.55,4.92-1.09,9.83-1.65,14.75
			c-0.19,1.68-1.47,2.8-3.16,2.82c-0.45,0.01-0.89,0-1.34,0c-2.3-0.01-3.73-1.88-3.12-4.09c0.92-3.36,1.87-6.72,2.8-10.08
			c0.48-1.74,0.97-3.47,1.45-5.21C19.66,6.72,19.72,6.56,19.77,6.39z"/>
		<path fill="#00B692" d="M17.17,6.36c-0.65,2.35-1.27,4.58-1.89,6.82c-0.96,3.47-1.93,6.95-2.89,10.42
			c-0.51,1.86-1.57,2.66-3.5,2.66c-0.39,0-0.78,0.02-1.16-0.04c-2.19-0.34-3.32-2.4-2.41-4.46c1.28-2.91,2.58-5.81,3.87-8.72
			c0.72-1.63,1.47-3.25,2.17-4.89c0.53-1.24,1.43-1.83,2.77-1.8C15.11,6.38,16.09,6.36,17.17,6.36z"/>
		<path fill="#00B692" d="M42.89,6.45c1.34,0,2.65-0.09,3.95,0.03c0.92,0.08,1.44,0.82,1.8,1.65c1.47,3.33,2.96,6.66,4.44,9.99
			c0.53,1.19,1.06,2.37,1.58,3.56c1.03,2.36-0.4,4.56-2.99,4.58c-0.33,0-0.66,0.01-0.99,0c-1.36-0.03-2.55-0.88-2.92-2.19
			c-1.63-5.8-3.23-11.62-4.84-17.43C42.9,6.59,42.9,6.51,42.89,6.45z"/>
	</g>
</g>
</svg>
